<svg xmlns="http://www.w3.org/2000/svg" viewBox="0 0 74.5 73.03"><defs><style>.cls-1{fill:#c0c9da;}.cls-2{fill:#fff;}</style></defs><title>Recurso 308</title><g id="Capa_2" data-name="Capa 2"><g id="Capa_1-2" data-name="Capa 1"><rect class="cls-1" width="74.5" height="73.03" rx="16.46"/><path class="cls-2" d="M39.91,60.43a5.2,5.2,0,0,1-4.06-1.91l-8-11.38H21.3A5.31,5.31,0,0,1,16,41.83V31.2a5.32,5.32,0,0,1,5.31-5.32h6.59l8.26-11.73A5.37,5.37,0,0,1,41.94,13a5.29,5.29,0,0,1,3.28,4.91v37.2A5.31,5.31,0,0,1,41.94,60,5.44,5.44,0,0,1,39.91,60.43ZM21.3,31.2V41.83h9.36l9.25,13.22V18L30.66,31.2Z"/><path class="cls-2" d="M50.54,44.48V39.17a2.66,2.66,0,0,0,0-5.32V28.54a8,8,0,0,1,0,15.94Z"/></g></g></svg>